<svg width="1375" height="472" viewBox="0 0 1375 472" fill="none" xmlns="http://www.w3.org/2000/svg">
<path d="M1328.25 331.629L243.204 471.31L11.6133 342.332C15.3001 336.427 19.6542 328.29 21.6628 319.993C30.0003 284.774 38.6412 215.406 8.31059 133.512C4.99445 124.589 1.2267 115.479 0 115.458L912.418 0L968.954 14.0418L1209.48 73.8606L1331.84 104.323C1331.84 104.323 1430.14 216.185 1328.25 331.629Z" fill="#006D4B"/>
<path d="M235.165 439.512L217.694 429.713L195.33 417.215L21.6575 320.014C30.0085 284.773 38.6629 215.385 8.28516 133.54C8.28516 133.54 8.33904 133.589 8.44015 133.63L81.7256 166.005L235.104 243.559C235.104 243.559 307.446 361.875 235.165 439.512Z" fill="#FDF9F7"/>
<path d="M235.163 439.513L217.693 429.713C251.413 289.621 15.1652 137.908 8.44531 133.631L81.7307 166.006L235.109 243.559C235.109 243.559 307.444 361.876 235.163 439.513Z" fill="#EACDB8"/>
<mask id="mask0_541_126" style="mask-type:luminance" maskUnits="userSpaceOnUse" x="8" y="133" width="260" height="307">
<path d="M235.165 439.512L21.6575 320.014C30.0085 284.773 38.6629 215.385 8.28516 133.54L235.111 243.559C235.111 243.559 307.446 361.875 235.165 439.512Z" fill="white"/>
</mask>
<g mask="url(#mask0_541_126)">
<path d="M277.323 401.323C268.231 395.906 258.532 391.754 249.008 387.205C239.673 382.747 230.365 378.226 221.09 373.643C202.184 364.296 183.373 354.747 164.696 344.906C127.706 325.411 91.2216 304.901 55.2968 283.39C34.9416 271.205 14.7279 258.777 -5.29023 246.014C-8.37047 244.053 -10.7295 249.304 -7.69642 251.265C27.6758 274.147 63.6478 295.999 100.206 316.794C136.583 337.485 173.492 357.174 210.886 375.827C221.394 381.071 231.949 386.204 242.538 391.26C253.302 396.406 263.985 401.949 275.274 405.754C278.152 406.727 280.033 402.937 277.323 401.323Z" fill="#34322D"/>
<path d="M304.635 376.758C265.34 357.688 225.924 338.882 186.555 319.972C147.374 301.152 108.153 282.429 68.9461 263.672C46.6834 253.017 24.4814 242.195 2.01657 231.993C-0.551414 230.824 -2.37794 234.775 0.149607 236.068C39.0469 255.966 78.5845 274.584 117.846 293.689C156.932 312.711 196.038 331.691 235.151 350.65C253.531 359.559 271.912 368.468 290.312 377.335C290.528 377.627 290.797 377.892 291.161 378.08C294.632 379.846 298.185 381.529 301.818 382.906C305.727 384.367 308.537 378.65 304.635 376.758Z" fill="#34322D"/>
<path d="M284.488 337.651C276.596 331.732 266.586 328.457 257.662 324.506C248.186 320.312 238.723 316.07 229.28 311.793C210.583 303.322 191.946 294.691 173.391 285.9C136.273 268.318 99.438 250.103 62.8998 231.269C42.2817 220.635 21.7446 209.848 1.3085 198.853C-1.36733 197.413 -3.34891 201.76 -0.693302 203.22C35.3596 223.049 71.7294 242.23 108.416 260.765C145.096 279.3 182.079 297.201 219.331 314.47C229.657 319.255 240.01 323.998 250.376 328.686C255.748 331.113 261.107 333.575 266.519 335.898C271.79 338.159 276.946 340.711 282.594 341.726C284.69 342.088 286.375 339.063 284.488 337.651Z" fill="#34322D"/>
<path d="M285.493 316.759C266.587 306.542 246.852 297.744 227.555 288.355C208.218 278.945 188.88 269.535 169.536 260.118C131.05 241.389 92.5909 222.59 54.0643 203.937C32.2398 193.365 10.4153 182.801 -11.4092 172.23C-13.9503 170.999 -15.8173 175.039 -13.2763 176.305C25.2435 195.473 63.7701 214.633 102.324 233.731C140.688 252.732 179.053 271.733 217.418 290.74C228.189 296.075 238.96 301.409 249.737 306.744C257.347 310.513 264.949 314.352 272.606 318.059C272.755 318.442 273.058 318.768 273.557 318.949C276.704 320.048 279.677 321.446 282.703 322.865C286.538 324.666 289.221 318.775 285.493 316.759Z" fill="#34322D"/>
<path d="M289.117 293.426C284.979 289.9 280.059 287.862 275.246 285.483C270.333 283.056 265.419 280.629 260.499 278.202C250.86 273.437 241.229 268.66 231.59 263.888C211.943 254.159 192.289 244.429 172.635 234.706C133.71 215.434 94.7996 196.134 55.8889 176.848C33.788 165.894 11.6467 155.017 -10.4946 144.147C-13.2581 142.79 -15.2869 147.186 -12.5302 148.591C26.3941 168.37 65.3789 188.004 104.371 207.631C143.173 227.16 181.976 246.703 220.773 266.246L253.543 282.757C259.003 285.511 264.462 288.272 269.922 291.026C275.408 293.801 280.78 297.112 286.785 298.447C289.495 299.045 291.234 295.234 289.117 293.426Z" fill="#34322D"/>
<path d="M273.045 432.543C264.613 426.708 255.446 421.888 246.583 416.783C237.612 411.616 228.607 406.504 219.575 401.434C201.883 391.502 184.156 381.64 166.396 371.855C130.511 352.075 94.4721 332.574 58.217 313.518C37.7135 302.745 17.1022 292.194 -3.5361 281.692C-6.09061 280.392 -7.83629 284.488 -5.3357 285.844C66.4264 324.645 137.959 363.947 208.886 404.348C218.962 410.093 229.025 415.865 239.115 421.582C249.151 427.264 259.066 433.565 269.486 438.462C272.87 440.047 276.314 434.81 273.045 432.543Z" fill="#34322D"/>
</g>
<path d="M1329.08 150.976C1322.17 136.99 1313.39 124.325 1302.87 112.982C1301.84 111.862 1300.51 111.723 1299.28 112.084C1298.66 111.806 1297.97 111.632 1297.12 111.716C1265.08 114.706 1233.26 120.096 1201.27 123.838C1169.3 127.573 1104.75 133.825 1072.77 137.567C1008.83 145.043 944.865 152.409 880.922 159.885C753.682 174.755 626.435 189.624 499.195 204.494C427.412 212.881 355.643 221.304 283.868 229.74C278.361 230.387 278.368 238.294 282.783 239.567C311.914 285.316 318.842 344.377 303.158 396.469C300.92 403.904 298.144 411.185 294.949 418.237C291.72 425.373 288.653 432.551 285.479 439.707C284.158 442.684 288.074 445.396 290.183 442.865C294.848 437.266 298.824 431.598 301.999 424.949C305.086 418.481 307.701 411.755 309.966 404.94C314.529 391.183 317.649 376.974 319.146 362.515C322.138 333.673 319.186 304.052 309.925 276.623C305.457 263.374 299.431 250.695 292.158 238.844C417.531 223.926 542.898 208.91 668.264 193.908C795.477 178.677 922.684 163.342 1049.9 148.118C1085.78 143.826 1154.24 137.018 1190.12 132.72C1225.98 128.428 1262.09 125.869 1297.83 120.75C1297.93 120.736 1297.99 120.681 1298.1 120.66C1314.16 140.099 1326.22 162.848 1332.62 187.566C1339.28 213.264 1339.25 240.409 1333.24 266.232C1329.82 280.962 1324.56 295.136 1317.82 308.587C1315.57 313.094 1322.1 315.987 1324.58 311.884C1353.69 263.86 1353.75 200.877 1329.08 150.976Z" fill="#D8BB30"/>
<path d="M530.307 278.521C527.625 267.032 523.709 256.002 518.802 245.409C518.519 244.797 518.155 244.373 517.75 244.067C517.663 242.467 516.591 240.882 514.65 240.903C487.009 241.209 459.091 244.081 431.78 248.56C428.504 249.095 427.534 252.809 428.552 255.264C428.322 255.974 428.262 256.774 428.605 257.699C437.32 280.782 442.059 305.36 442.659 330.273C443.265 355.484 439.066 379.687 431.517 403.472C431.275 404.237 431.261 404.954 431.355 405.629C430.169 408.626 431.699 412.945 435.662 412.695C448.759 411.853 461.821 409.683 474.836 407.896C481.246 407.019 487.669 406.213 494.093 405.503C500.718 404.773 507.391 404.592 513.989 403.612C516.557 403.229 517.777 401.059 517.905 398.868C527.187 381.3 532.12 360.547 534.203 340.587C536.353 319.861 535.025 298.746 530.307 278.521ZM522.92 364.991C520.238 375.131 516.328 384.667 512.102 394.132C505.901 395.266 499.788 396.879 493.56 397.909C487.17 398.966 480.747 399.786 474.31 400.391C462.96 401.456 451.589 401.803 440.232 402.534C451.549 366.153 452.641 325.293 444.896 288.077C442.672 277.409 439.632 266.976 435.878 256.829C448.422 254.659 461.012 252.712 473.63 251.112C486.517 249.478 499.404 248.546 512.331 247.558C512.271 248.296 512.325 249.054 512.695 249.84C529.525 285.059 532.976 326.955 522.92 364.991Z" fill="#D8BB30"/>
<path d="M288.315 233.753C281.325 229.239 272.954 226.561 265.351 223.3C258.004 220.149 250.664 216.984 243.311 213.848C228.22 207.415 212.96 201.371 197.984 194.652C168.448 181.396 139.318 167.229 110.079 153.306C93.3701 145.349 76.7018 137.317 59.9525 129.451C54.9581 127.107 51.2376 135.147 56.2927 137.407C86.239 150.802 116.307 163.933 146.347 177.098C176.408 190.271 205.991 204.313 235.378 219.015C243.655 223.16 251.992 227.173 260.303 231.242C268.499 235.248 276.742 240.193 285.484 242.752C287.695 243.399 290.04 241.591 290.687 239.518C291.449 237.098 290.296 235.032 288.315 233.753Z" fill="#D8BB30"/>
<path d="M416.418 287.702C413.816 276.637 410.567 265.328 405.62 255.098C405.97 254.437 406.166 253.7 406.092 252.976C405.836 250.375 402.351 248.171 400.208 250.222C399.237 251.154 396.635 251.071 395.395 251.217C393.717 251.405 392.052 251.571 390.367 251.669C387.004 251.864 383.647 252.072 380.284 252.316C373.564 252.796 366.864 253.394 360.165 254.047C359.437 254.117 358.884 254.402 358.419 254.764C356.424 255.452 354.853 257.483 355.797 260.105C369.473 298.086 373.22 339.467 366.467 379.388C365.55 384.827 364.438 390.224 363.144 395.579C361.775 401.233 359.531 406.874 359.052 412.688C358.884 414.795 360.07 416.089 361.526 416.409C362.166 417.716 363.42 418.676 365.26 418.481C372.209 417.737 379.145 416.875 386.08 416.047C389.552 415.63 393.05 415.484 396.534 415.296C398.138 415.212 399.776 415.233 401.367 415.032C403.328 414.781 404.993 413.814 406.826 413.14C408.114 412.667 408.707 411.492 408.741 410.288C409.293 410.226 409.833 410.066 410.331 409.732C414.241 407.124 414.962 399.995 416.067 395.634C417.321 390.71 418.406 385.738 419.282 380.723C421.116 370.319 422.187 359.775 422.517 349.211C423.171 328.52 421.142 307.822 416.418 287.702ZM411.787 374.923C410.83 380.494 409.671 386.037 408.309 391.524C407.628 394.257 406.901 396.984 406.099 399.682C405.377 402.109 404.555 404.342 404.946 406.762C403.483 406.477 402.048 406.164 400.518 406.275C398.92 406.394 397.316 406.762 395.732 407.013C392.281 407.555 388.824 408.132 385.339 408.438C379.374 408.967 373.409 409.502 367.451 410.087C368.704 406.7 369.506 403.09 370.369 399.62C371.609 394.647 372.688 389.632 373.611 384.583C375.478 374.297 376.678 363.879 377.204 353.425C378.248 332.547 376.941 311.564 372.829 291.082C370.774 280.865 368.064 270.816 364.748 260.961C370.153 260.342 375.552 259.709 380.951 258.964C384.287 258.505 387.624 258.012 390.953 257.511C392.483 257.281 394.007 257.101 395.55 256.955C396.393 256.871 397.815 256.6 399.062 256.579C402.209 265.989 405.674 275.225 408.174 284.864C410.742 294.761 412.562 304.86 413.695 315.035C415.912 334.946 415.164 355.206 411.787 374.923Z" fill="#D8BB30"/>
<path d="M1284.36 191.704C1281.68 180.214 1277.76 169.184 1272.85 158.591C1272.57 157.979 1272.21 157.555 1271.8 157.249C1271.71 155.643 1270.64 154.064 1268.7 154.085C1241.06 154.391 1213.14 157.263 1185.83 161.742C1182.56 162.278 1181.58 165.991 1182.6 168.446C1182.37 169.156 1182.31 169.956 1182.66 170.881C1191.37 193.964 1196.11 218.542 1196.71 243.455C1197.32 268.666 1193.12 292.869 1185.57 316.655C1185.33 317.42 1185.31 318.136 1185.41 318.811C1184.22 321.808 1185.75 326.127 1189.71 325.877C1202.81 325.035 1215.87 322.865 1228.89 321.078C1235.3 320.202 1241.72 319.395 1248.14 318.685C1254.77 317.955 1261.44 317.781 1268.04 316.794C1270.61 316.411 1271.83 314.241 1271.96 312.051C1281.24 294.483 1286.17 273.729 1288.25 253.769C1290.41 233.043 1289.08 211.928 1284.36 191.704ZM1276.98 278.173C1274.29 288.314 1270.39 297.849 1266.15 307.314C1259.95 308.448 1253.84 310.061 1247.61 311.091C1241.22 312.148 1234.8 312.969 1228.36 313.574C1217.01 314.638 1205.64 314.985 1194.28 315.716C1205.6 279.335 1206.69 238.475 1198.95 201.26C1196.73 190.591 1193.68 180.159 1189.93 170.011C1202.47 167.841 1215.06 165.894 1227.68 164.294C1240.57 162.66 1253.45 161.728 1266.38 160.74C1266.32 161.478 1266.38 162.243 1266.75 163.022C1283.58 198.241 1287.03 240.137 1276.98 278.173Z" fill="#D8BB30"/>
<path d="M1170.48 200.885C1167.88 189.819 1164.63 178.511 1159.68 168.28C1160.03 167.619 1160.22 166.882 1160.15 166.159C1159.89 163.558 1156.41 161.353 1154.27 163.405C1153.3 164.337 1150.69 164.253 1149.45 164.399C1147.78 164.587 1146.11 164.754 1144.43 164.851C1141.06 165.046 1137.71 165.255 1134.34 165.498C1127.62 165.978 1120.92 166.576 1114.22 167.23C1113.5 167.3 1112.94 167.585 1112.48 167.946C1110.48 168.635 1108.91 170.666 1109.86 173.288C1123.53 211.268 1127.27 252.65 1120.53 292.571C1119.61 298.002 1118.5 303.406 1117.2 308.761C1115.83 314.416 1113.59 320.056 1113.11 325.87C1112.94 327.978 1114.13 329.271 1115.58 329.591C1116.22 330.899 1117.48 331.859 1119.32 331.664C1126.27 330.92 1133.2 330.057 1140.14 329.223C1143.61 328.805 1147.11 328.659 1150.59 328.472C1152.19 328.388 1153.83 328.409 1155.43 328.207C1157.39 327.957 1159.05 326.99 1160.88 326.316C1162.17 325.843 1162.77 324.667 1162.8 323.464C1163.35 323.401 1163.89 323.241 1164.39 322.908C1168.3 320.3 1169.02 313.171 1170.13 308.81C1171.38 303.886 1172.46 298.913 1173.34 293.899C1175.17 283.494 1176.25 272.951 1176.57 262.386C1177.23 241.703 1175.2 221.005 1170.48 200.885ZM1165.85 288.106C1164.89 293.676 1163.73 299.219 1162.37 304.707C1161.69 307.44 1160.96 310.166 1160.16 312.865C1159.44 315.292 1158.61 317.525 1159 319.945C1157.54 319.66 1156.11 319.347 1154.58 319.458C1152.98 319.576 1151.37 319.945 1149.79 320.195C1146.33 320.738 1142.88 321.315 1139.4 321.621C1133.43 322.15 1127.47 322.685 1121.5 323.269C1122.76 319.882 1123.56 316.273 1124.42 312.802C1125.66 307.83 1126.74 302.815 1127.66 297.766C1129.53 287.48 1130.73 277.061 1131.26 266.608C1132.3 245.73 1130.99 224.747 1126.88 204.265C1124.83 194.048 1122.12 183.998 1118.8 174.143C1124.21 173.517 1129.61 172.891 1135 172.147C1138.34 171.688 1141.68 171.194 1145.01 170.694C1146.54 170.464 1148.06 170.283 1149.6 170.137C1150.44 170.054 1151.87 169.783 1153.11 169.762C1156.26 179.172 1159.73 188.408 1162.23 198.047C1164.79 207.944 1166.61 218.042 1167.75 228.217C1169.97 248.129 1169.22 268.388 1165.85 288.106Z" fill="#D8BB30"/>
<path d="M1030.64 245.5C1005.07 245.882 986.202 264.278 964.391 275.204C947.581 283.626 924.597 286.36 914.582 266.476C909.695 256.767 900.825 250.855 890.587 257.073C885.72 260.022 882.141 264.744 878.333 268.931C874.249 273.417 869.989 277.736 865.5 281.79C857.162 289.309 846.992 299.282 835.877 301.883C832.001 302.787 827.56 302.634 824.116 300.388C820.132 297.787 818.568 292.334 815.252 288.961C811.532 285.184 806.261 283.731 801.266 285.567C795.47 287.702 792.491 292.995 789.444 298.086C787.025 302.126 783.486 305.611 778.66 302.843C774.016 300.179 775.546 295.172 776.813 291.096C779.819 286.123 772.877 281.408 768.799 284.169C762.855 288.189 761.54 295.93 763.313 302.773C761.581 305.764 759.444 308.504 757.395 310.66C752.347 315.966 745.714 319.284 738.496 319.785C726.02 320.654 714.44 310.326 716.739 297.119C716.826 296.639 716.894 296.138 716.941 295.631C716.968 295.526 716.954 295.429 716.981 295.325C716.981 295.325 716.968 295.325 716.954 295.325C716.995 294.824 717.055 294.337 717.035 293.794C716.847 287.959 707.99 286.241 705.981 291.833C704.04 297.251 703.75 302.613 704.728 307.572C703.07 311.168 700.717 314.52 697.758 317.1C691.625 322.448 683.604 324.465 675.752 322.873C659.279 319.541 651.231 300.673 658.335 285.407C662.137 277.242 649.897 271.504 645.94 279.565C634.496 302.877 648.374 331.872 673.629 335.739C685.188 337.513 696.741 333.917 704.95 325.244C706.736 323.36 708.3 321.224 709.668 318.964C715.586 327.345 725.642 332.818 736.723 332.262C747.076 331.747 757.011 326.016 763.65 317.963C765.274 315.994 766.73 313.838 768.038 311.585C768.516 312.114 768.954 312.698 769.487 313.143C778.283 320.529 791.682 317.385 797.674 307.982C799.204 305.583 802.52 295.742 806.214 296.618C807.602 296.945 808.896 300.353 809.523 301.459C810.932 303.935 812.28 306.292 814.255 308.358C822.619 317.086 836.032 316.919 846.223 312.051C857.466 306.682 867.367 297.898 876.48 289.357C880.942 285.17 885.255 280.824 889.36 276.261C891.658 273.702 897.536 264.869 901.007 269.202C903.892 272.805 904.95 277.722 907.862 281.415C911.265 285.741 915.559 289.169 920.398 291.631C930.037 296.535 941.569 297.334 951.969 295.067C980.655 288.815 1001.78 260.522 1031.89 260.091C1041.04 259.966 1039.74 245.368 1030.64 245.5Z" fill="#D8BB30"/>
<path d="M587.808 157.709C584.425 153.779 578.985 151.776 574.496 149.488C569.718 147.054 564.831 144.835 559.985 142.554C550.279 137.985 540.486 133.645 530.685 129.298C511.26 120.667 491.754 112.321 471.925 104.699C465.825 102.355 463.284 112.481 469.357 114.811C489.153 122.392 508.955 130.32 528.124 139.487C537.5 143.973 546.835 148.577 556.069 153.376C559.924 155.379 563.753 157.451 567.608 159.461C555.038 160.609 542.514 162.431 529.998 164.01C512.77 166.187 495.542 168.357 478.315 170.52C444.479 174.762 410.59 178.719 376.674 182.19C358.314 184.074 339.839 185.312 321.519 187.573C319.072 183.727 313.579 182.294 309.63 180.375C304.008 177.655 298.394 174.929 292.772 172.21C281.53 166.757 270.2 161.499 258.897 156.179C241.035 147.777 223.497 138.736 205.899 129.813C217.189 128.352 228.465 126.753 239.755 125.355C256.989 123.219 274.224 121.154 291.485 119.283C325.388 115.611 359.304 112.057 393.241 108.67C412.646 106.729 432.232 105.422 451.442 101.91C457.872 100.734 456.868 91.2272 450.336 91.5193C433.304 92.2774 416.386 94.8575 399.475 96.9927C382.248 99.1695 365.02 101.339 347.792 103.502C313.957 107.745 280.067 111.702 246.151 115.173C226.739 117.162 207.193 118.4 187.842 120.924C182.76 121.585 182.113 127.698 184.944 130.494C185.375 131.092 185.955 131.628 186.784 132.031C209.545 143.076 232.556 153.487 255.095 165.018C266.203 170.7 277.29 176.431 288.459 181.981C294.046 184.756 299.634 187.538 305.221 190.313C308.093 191.739 311.004 193.728 314.011 194.674C314.55 197.087 316.403 199.16 319.517 198.861C336.482 197.233 353.353 194.451 370.264 192.358C387.498 190.223 404.733 188.157 421.994 186.286C455.904 182.614 489.813 179.06 523.75 175.673C543.155 173.733 562.742 172.425 581.951 168.92C583.703 168.6 584.863 167.64 585.543 166.444C589.163 165.748 590.147 160.428 587.808 157.709Z" fill="#D8BB30"/>
<path d="M681.865 148.716C677.868 145.266 672.84 143.479 668.149 141.232C663.343 138.93 658.632 136.468 653.934 133.944C644.558 128.901 635.351 123.525 626.205 118.059C607.892 107.112 590.017 95.4833 572.513 83.208C566.845 79.2298 561.433 88.9249 567.222 92.8196C584.929 104.719 602.958 116.153 621.265 127.045C630.168 132.344 639.193 137.421 648.191 142.547C652.822 145.183 657.466 147.77 662.056 150.468C666.659 153.174 671.492 156.777 676.695 158.021C681.528 159.176 686.192 152.444 681.865 148.716Z" fill="#D8BB30"/>
<path d="M748.432 144.014C745.014 139.188 739.42 137.498 734.298 134.994C729.027 132.42 723.729 129.896 718.485 127.267C708.011 122.016 697.692 116.445 687.373 110.881C666.748 99.7535 646.413 88.0693 625.761 76.9971C619.237 73.4989 613.521 83.7643 620.1 87.2904C640.772 98.3695 661.747 108.823 682.446 119.846C692.515 125.208 702.572 130.591 712.507 136.225C717.602 139.111 722.637 142.129 727.692 145.092C732.579 147.951 737.876 152.457 743.633 152.541C747.447 152.59 750.939 147.561 748.432 144.014Z" fill="#D8BB30"/>
<path d="M809.241 130.696C791.979 121.835 774.415 113.552 757.092 104.796C739.764 96.0396 722.408 87.3529 704.93 78.9166C698.703 75.9121 693.304 85.3429 699.586 88.6326C716.78 97.6391 734.088 106.395 751.431 115.082C768.766 123.769 785.906 132.935 803.289 141.503C810.218 144.932 816.237 134.284 809.241 130.696Z" fill="#D8BB30"/>
<path d="M901.992 123.567C890.257 117.328 877.592 112.578 865.555 106.958C853.476 101.325 841.344 95.7819 829.461 89.7242C805.736 77.6367 782.287 65.0205 758.67 52.7104C752.408 49.4486 746.962 59.4567 753.291 62.4821C777.353 73.9854 801.55 85.1688 825.511 96.8947C837.185 102.612 848.623 108.822 860.102 114.936C872.059 121.313 883.739 128.748 895.986 134.479C902.989 137.761 909.062 127.322 901.992 123.567Z" fill="#D8BB30"/>
<path d="M963.885 113.378C954.732 108.196 944.757 104.253 935.179 99.9825C925.541 95.6914 915.983 91.2681 906.466 86.6848C887.52 77.567 868.499 68.5813 849.303 60.0338C842.293 56.918 838.054 67.2529 845.32 70.1322C864.772 77.8312 884.042 85.9407 903.022 94.8151C912.29 99.148 921.362 103.829 930.299 108.85C939.452 113.99 948.396 119.811 957.792 124.457C964.863 127.955 970.935 117.363 963.885 113.378Z" fill="#D8BB30"/>
</svg>
